#tb 0: 1/44100
#media_type 0: audio
#codec_id 0: pcm_s16le
#sample_rate 0: 44100
#channel_layout_name 0: stereo
0,          0,          0,     4096,    16384, 0xfab6015e
0,       4096,       4096,     4096,    16384, 0xd79f0842
0,       8192,       8192,     4096,    16384, 0xf63ffbc5
0,      12288,      12288,     4096,    16384, 0x66faec9d
0,      16384,      16384,     4096,    16384, 0xb040efa3
0,      20480,      20480,     4096,    16384, 0xa46bfa51
0,      24576,      24576,     4096,    16384, 0x5d06097c
0,      28672,      28672,     4096,    16384, 0xafa9003a
0,      32768,      32768,     4096,    16384, 0xfab6015e
0,      36864,      36864,     4096,    16384, 0xd79f0842
0,      40960,      40960,     4096,    16384, 0x12cff38f
0,      45056,      45056,     4096,    16384, 0x11ca0608
0,      49152,      49152,     4096,    16384, 0x5731e14d
0,      53248,      53248,     4096,    16384, 0x34540428
0,      57344,      57344,     4096,    16384, 0x332740e6
0,      61440,      61440,     4096,    16384, 0xaabd0d1c
0,      65536,      65536,     4096,    16384, 0xc4822c56
0,      69632,      69632,     4096,    16384, 0x8fe4135a
0,      73728,      73728,     4096,    16384, 0x1b7b0644
0,      77824,      77824,     4096,    16384, 0xb0dff19d
